<svg width="128" height="32" viewBox="0 0 128 32" fill="none" xmlns="http://www.w3.org/2000/svg">
<g clip-path="url(#clip0_1_198)">
<path fill-rule="evenodd" clip-rule="evenodd" d="M4.18593 15.1626C4.18593 15.6405 4.21771 16.0863 4.28115 16.5323C6.63144 16.3093 10.6013 15.2264 10.6013 12.1047C10.6013 10.7032 9.87098 9.33346 8.02881 9.33346C5.61507 9.33346 4.18593 11.7224 4.18593 15.1626ZM14.9842 21.0555C14.1903 22.3295 11.713 24.8778 7.90181 24.8778C3.67768 24.8778 0.0889282 21.7562 0.0889282 16.819C0.0889282 11.6268 4.0588 7.90012 8.60049 7.90012C11.6812 7.90012 14.1585 9.49271 14.1585 12.2003C14.1585 16.4367 7.93359 17.3924 4.50349 17.7109C5.29751 20.6095 7.45725 21.7881 9.74386 21.7881C11.6495 21.7881 12.9834 20.8325 13.9044 20.1318C14.5079 19.6539 15.27 20.6095 14.9842 21.0555Z" fill="#1E1928"/>
<path fill-rule="evenodd" clip-rule="evenodd" d="M42.7736 22.8392C43.2183 22.903 43.5041 23.2215 43.5041 23.6675V23.7948C43.5041 24.2408 43.2183 24.5274 42.7736 24.5274H36.2629C35.8183 24.5274 35.5324 24.2408 35.5324 23.7948V23.6675C35.5324 23.2215 35.8183 22.903 36.2629 22.8392L36.8663 22.7755C37.3109 22.7117 37.5968 22.3932 37.5968 21.9474V13.57C37.5968 11.6268 36.4534 10.7669 35.0241 10.7669C34.0079 10.7669 32.9281 11.1173 32.0389 12.009C31.753 12.2958 31.5942 12.5188 31.5942 13.1559V21.9474C31.5942 22.3932 31.8801 22.7117 32.3246 22.7755L32.9281 22.8392C33.3728 22.903 33.6586 23.2215 33.6586 23.6675V23.7948C33.6586 24.2408 33.3728 24.5274 32.9281 24.5274H26.4174C25.9727 24.5274 25.6868 24.2408 25.6868 23.7948V23.6675C25.6868 23.2215 25.9727 22.903 26.4174 22.8392L27.0208 22.7755C27.4654 22.7117 27.7512 22.3932 27.7512 21.9474V13.57C27.7512 11.6268 26.6079 10.7669 25.1787 10.7669C24.1624 10.7669 22.9873 11.2445 22.1298 12.0409C21.8121 12.3595 21.6533 12.6144 21.6533 13.0921V21.9474C21.6533 22.3932 21.9393 22.7117 22.3839 22.7755L22.9873 22.8392C23.432 22.903 23.7177 23.2215 23.7177 23.6675V23.7948C23.7177 24.2408 23.432 24.5274 22.9873 24.5274H16.4765C16.0319 24.5274 15.7461 24.2408 15.7461 23.7948V23.6675C15.7461 23.2215 16.0319 22.903 16.4765 22.8392L17.08 22.7755C17.5247 22.7117 17.8105 22.3932 17.8105 21.9474V11.4995C17.8105 11.0536 17.5247 10.7351 17.08 10.6713L16.3494 10.5757C15.9049 10.5121 15.6191 10.1934 15.6191 9.74758V9.62008C15.6191 9.17409 15.9049 8.88747 16.3494 8.88747C17.5881 8.82372 18.9221 8.47335 20.129 7.96373C20.5418 7.77261 20.8593 7.93186 20.9229 8.37785L21.3676 10.8306H21.7805C22.9555 9.20596 24.6705 7.90011 27.0525 7.90011C29.0852 7.90011 30.5144 9.01496 31.1813 10.8306H31.626C32.801 9.20596 34.516 7.90011 36.8981 7.90011C39.7564 7.90011 41.4397 10.1617 41.4397 13.3788V21.9474C41.4397 22.3932 41.7256 22.7117 42.1701 22.7755L42.7736 22.8392Z" fill="#1E1928"/>
<path fill-rule="evenodd" clip-rule="evenodd" d="M56.8742 16.6915C56.8742 12.3914 55.1909 10.5758 52.7772 10.5758C51.729 10.5758 50.9669 10.9261 50.2999 11.4039C49.76 11.7861 49.3471 12.2321 49.3471 13.0921V20.9281C49.3471 22.2341 50.554 23.3808 52.3007 23.3808C54.8733 23.3808 56.8742 21.2147 56.8742 16.6915ZM60.9712 15.8952C60.9712 22.4888 56.6201 24.9096 52.809 24.9096C51.6656 24.9096 50.2999 24.6868 49.3471 24.2726V29.0506C49.3471 29.4966 49.633 29.815 50.0775 29.9107L51.6656 30.1335C52.1101 30.2292 52.3961 30.5477 52.3961 30.9937V31.121C52.3961 31.567 52.1101 31.8536 51.6656 31.8536H44.1385C43.6939 31.8536 43.408 31.567 43.408 31.121V30.9937C43.408 30.5477 43.6939 30.1973 44.1067 30.1017L44.8054 29.9425C45.2183 29.8469 45.5042 29.4966 45.5042 29.0506V11.4995C45.5042 11.0535 45.2183 10.735 44.7737 10.6713L44.0433 10.5758C43.5986 10.512 43.3128 10.1935 43.3128 9.74754V9.62004C43.3128 9.17417 43.5986 8.88755 44.0433 8.88755C45.2819 8.8238 46.6158 8.47343 47.8226 7.96369C48.2355 7.7727 48.5532 7.93182 48.6166 8.37781L48.9977 10.4801H49.4106C50.8716 8.60081 52.5866 7.90007 54.4604 7.90007C58.3987 7.90007 60.9712 11.1809 60.9712 15.8952Z" fill="#1E1928"/>
<path fill-rule="evenodd" clip-rule="evenodd" d="M71.4832 18.3161C71.4832 17.8701 71.2292 17.5834 70.7845 17.5834H69.6092C67.6085 17.5834 66.1792 18.4117 66.1792 20.1955C66.1792 21.7244 67.2273 22.4889 68.4979 22.4889C69.6092 22.4889 70.4669 21.9155 70.8798 21.5332C71.2292 21.2147 71.3243 20.9918 71.3561 20.3546L71.4832 18.3161ZM78.4068 22.68C78.3433 22.8073 78.2164 22.9667 78.121 23.0941C77.2952 24.0814 76.1202 24.7503 74.6909 24.7503C73.1347 24.7503 72.1183 23.9541 71.8325 22.3614H71.4196C70.1812 24.0178 68.4343 24.9097 66.6557 24.9097C64.2102 24.9097 62.3364 23.3171 62.3364 20.9918C62.3364 18.8894 63.8925 17.4559 66.9098 16.7871L70.9115 15.9271C71.3243 15.8315 71.6103 15.4811 71.6421 15.0351L71.7055 13.984C71.8325 11.4358 70.8163 9.71571 68.0849 9.71571C66.8145 9.71571 65.6076 10.098 64.6549 10.8306C65.8617 10.8306 66.8145 11.6905 66.8145 12.901C66.8145 14.1114 65.8617 15.0351 64.6549 15.0351C63.4479 15.0351 62.4951 14.0795 62.4951 12.5188C62.4951 9.49271 66.1159 7.90012 69.4823 7.90012C73.357 7.90012 75.7709 9.97045 75.5484 13.6973L75.1355 21.0236C75.0721 21.9474 75.5166 22.266 76.0884 22.266C76.3424 22.266 76.8823 22.2022 77.6764 21.8836C78.1528 21.6925 78.5974 22.2022 78.4068 22.68Z" fill="#1E1928"/>
<path fill-rule="evenodd" clip-rule="evenodd" d="M83.7736 24.7822C81.3917 24.7822 79.8989 23.5718 79.8989 20.0362V10.7032C79.8989 10.4801 79.772 10.2891 79.5495 10.2254L78.0251 9.62013C77.8346 9.52463 77.7076 9.36526 77.7076 9.17414V9.11052C77.7076 8.95127 77.8028 8.7919 77.9934 8.6964C79.7402 7.58154 81.3917 6.1482 83.0432 4.36435C83.329 4.07773 83.9641 4.3006 83.9008 4.77847L83.4243 8.28241H88.2518C88.6965 8.28241 88.9505 8.56903 88.8869 9.01489L88.76 9.62013C88.6965 10.066 88.3789 10.321 87.9342 10.2891L83.7419 10.0024V19.5583C83.7419 21.82 84.5995 22.2022 85.838 22.2022C86.8861 22.2022 87.6483 21.9154 87.966 21.7563C88.3153 21.5969 88.6011 21.7563 88.7282 21.9792C88.8869 22.234 88.9187 22.5844 88.6011 22.8711C87.4895 23.7949 85.9334 24.7822 83.7736 24.7822Z" fill="#1E1928"/>
<path fill-rule="evenodd" clip-rule="evenodd" d="M107.212 22.8392C107.657 22.903 107.943 23.2215 107.943 23.6674V23.7948C107.943 24.2408 107.657 24.5274 107.212 24.5274H100.701C100.257 24.5274 99.9707 24.2408 99.9707 23.7948V23.6674C99.9707 23.2215 100.257 22.903 100.701 22.8392L101.305 22.7755C101.749 22.7117 102.035 22.3932 102.035 21.9474V13.5063C102.035 11.4039 100.765 10.7669 99.3356 10.7669C98.0969 10.7669 96.9854 11.2445 96.0007 12.1365C95.8737 12.264 95.6197 12.5188 95.6197 12.9965V21.9474C95.6197 22.3932 95.9055 22.7117 96.3501 22.7755L96.9537 22.8392C97.3982 22.903 97.6841 23.2215 97.6841 23.6674V23.7948C97.6841 24.2408 97.3982 24.5274 96.9537 24.5274H90.4429C89.9982 24.5274 89.7125 24.2408 89.7125 23.7948V23.6674C89.7125 23.2215 89.9982 22.903 90.4429 22.8392L91.0463 22.7755C91.4909 22.7117 91.7769 22.3932 91.7769 21.9474V3.75918C91.7769 3.44056 91.5862 3.21769 91.2686 3.18582L90.4429 3.02644C89.9982 2.96282 89.7125 2.6442 89.7125 2.23008C89.7125 1.78434 89.9982 1.4976 90.4429 1.46572C91.9037 1.33835 93.3648 0.892358 94.8893 0.191495C95.3338 -0.0313755 95.6197 0.127997 95.6197 0.573864V10.6394H96.0325C97.2077 9.01496 98.8909 7.90011 101.114 7.90011C104.258 7.90011 105.878 10.1617 105.878 13.3788V21.9474C105.878 22.3932 106.164 22.7117 106.609 22.7755L107.212 22.8392Z" fill="#1E1928"/>
<path fill-rule="evenodd" clip-rule="evenodd" d="M123.885 8.28235C124.33 8.28235 124.616 8.56897 124.616 9.01496V9.04684C124.616 9.49283 124.33 9.8432 123.917 9.93869L123.663 10.0023C123.25 10.0979 122.901 10.4483 122.805 10.8624C121.376 16.9146 118.994 23.8586 115.786 28.0631C113.976 30.4203 111.975 31.9174 109.593 31.9174C107.338 31.9174 106.576 30.5477 106.576 29.3053C106.576 27.9994 107.497 27.0758 108.768 27.0758C110.038 27.0758 110.959 27.9994 110.959 29.2735C110.959 29.5603 110.927 29.8151 110.832 30.0698C112.674 29.3372 114.262 27.6171 115.66 25.3557C112.865 20.6414 110.641 15.8952 109.022 10.5121C108.958 10.2572 108.736 10.0661 108.45 10.0342L107.942 9.93869C107.497 9.87494 107.211 9.55632 107.211 9.11058V9.01496C107.211 8.56897 107.497 8.28235 107.942 8.28235H114.198C114.643 8.28235 114.929 8.56897 114.929 9.01496V9.11058C114.929 9.55632 114.643 9.87494 114.198 9.93869L113.881 10.0023C113.436 10.0661 113.214 10.3846 113.309 10.7987C114.357 14.8441 116.136 18.6028 117.629 21.6606C119.026 18.2842 120.169 14.3345 120.932 10.8306C121.027 10.4164 120.805 10.0979 120.36 10.0342L119.502 9.90682C119.058 9.8432 118.772 9.52458 118.772 9.07871V9.01496C118.772 8.56897 119.058 8.28235 119.502 8.28235H123.885Z" fill="#1E1928"/>
<path fill-rule="evenodd" clip-rule="evenodd" d="M125.441 24.9415C124.075 24.9415 122.964 23.8586 122.964 22.4888C122.964 21.151 124.075 20.0361 125.441 20.0361C126.775 20.0361 127.887 21.151 127.887 22.4888C127.887 23.8586 126.775 24.9415 125.441 24.9415Z" fill="#1E1928"/>
</g>
<defs>
<clipPath id="clip0_1_198">
<rect width="128" height="32" fill="white"/>
</clipPath>
</defs>
</svg>
